# xmcd
#
# Track frame offsets:
#	150
#	13257
#	26056
#	38205
#	51256
#	63514
#	74125
#	86414
#	96655
#	110766
#	123272
#	137824
#	151161
#	165652
#	179786
#	192636
#	205170
#	218232
#	238686
#	251575
#
# Disc length: 3550 seconds
#
# Revision: 0
# Processed by: cddbd v1.5.2PL0 Copyright (c) Steve Scherf et al.
# Submitted via: dBpowerAMP V4.0
#
DISCID=380ddc14
DTITLE=Merle Haggard - The Original Outlaw [CD 2)
DYEAR=2007
DGENRE=Country
TTITLE0=The Fightin' Side Of Me
TTITLE1=I Wonder If They Ever Think Of Me
TTITLE2=Kentucky Gambler
TTITLE3=Everybody's Had The Blues
TTITLE4=If We Make It Thru December
TTITLE5=Old Man From The Mountain
TTITLE6=Things Aren't Funny Anymore
TTITLE7=Movin' On
TTITLE8=Always Wanting You
TTITLE9=The Roots Of My Raising
TTITLE10=It's All In The Movies
TTITLE11=Cherokee Maiden
TTITLE12=If We're Not Back In Love By Monday
TTITLE13=Ramblin' Fever
TTITLE14=I'm Always On A Mountain When I Fall
TTITLE15=It's Been A Great Afternoon
TTITLE16=The Way I Am
TTITLE17=I Think I'll Stay Here And Drink
TTITLE18=Misery And Gin
TTITLE19=When My Blue Moon Turns To Gold Again
EXTD=
EXTT0=
EXTT1=
EXTT2=
EXTT3=
EXTT4=
EXTT5=
EXTT6=
EXTT7=
EXTT8=
EXTT9=
EXTT10=
EXTT11=
EXTT12=
EXTT13=
EXTT14=
EXTT15=
EXTT16=
EXTT17=
EXTT18=
EXTT19=
PLAYORDER=
